<?xml version="1.0" encoding="utf-8"?>
<!-- Generator: Adobe Illustrator 24.2.0, SVG Export Plug-In . SVG Version: 6.00 Build 0)  -->
<svg version="1.1" id="Layer_1" xmlns="http://www.w3.org/2000/svg" xmlns:xlink="http://www.w3.org/1999/xlink" x="0px" y="0px"
	 viewBox="0 0 119.5 34" style="enable-background:new 0 0 119.5 34;" xml:space="preserve">
<polygon style="fill:#FFFFFF;" points="117.5,11.3 117.5,22.7 115.2,22.7 115.2,27.2 113,27.2 113,29.4 108.4,29.4 108.4,31.7 
	11.3,31.7 11.3,29.4 6.8,29.4 6.8,27.2 4.5,27.2 4.5,22.7 2.3,22.7 2.3,11.3 4.5,11.3 4.5,6.8 6.8,6.8 6.8,4.5 11.3,4.5 11.3,2.3 
	108.4,2.3 108.4,4.5 113,4.5 113,6.8 115.2,6.8 115.2,11.3 "/>
<g>
	<path d="M4.5,6.8H2.3c0,1.6,0,2.9,0,4.5h2.3C4.5,9.7,4.5,8.4,4.5,6.8z"/>
	<path d="M2.3,11.3H0c0,2.5,0,8.9,0,11.3h2.3C2.3,20.2,2.3,13.8,2.3,11.3z"/>
	<rect x="4.5" y="4.5" width="2.3" height="2.3"/>
	<path d="M11.3,4.5V2.3c-1.6,0-2.9,0-4.5,0v2.3C8.4,4.5,9.7,4.5,11.3,4.5z"/>
	<path d="M108.2,2.3V0c-9.4,0-85,0-96.8,0v2.3C23.2,2.3,98.8,2.3,108.2,2.3z"/>
	<path d="M4.5,22.7H2.3c0,1.6,0,2.9,0,4.5h2.3C4.5,25.5,4.5,24.3,4.5,22.7z"/>
	<rect x="4.5" y="27.2" width="2.3" height="2.3"/>
	<path d="M6.8,29.4v2.3c1.6,0,2.9,0,4.5,0v-2.3C9.7,29.4,8.4,29.4,6.8,29.4z"/>
	<path d="M11.3,31.7V34c11.9,0,87.5,0,96.8,0v-2.3C98.8,31.7,23.2,31.7,11.3,31.7z"/>
	<path d="M115,27.2h2.3c0-1.6,0-2.9,0-4.5H115C115,24.3,115,25.5,115,27.2z"/>
	<path d="M117.2,11.3c0,2.4,0,8.9,0,11.3h2.3c0-2.5,0-8.9,0-11.3H117.2z"/>
	<rect x="112.7" y="27.2" width="2.3" height="2.3"/>
	<path d="M108.2,29.4v2.3c1.6,0,2.9,0,4.5,0v-2.3C111.1,29.4,109.8,29.4,108.2,29.4z"/>
	<path d="M115,11.3h2.3c0-1.6,0-2.9,0-4.5H115C115,8.4,115,9.7,115,11.3z"/>
	<rect x="112.7" y="4.5" width="2.3" height="2.3"/>
	<path d="M112.7,4.5V2.3c-1.6,0-2.9,0-4.5,0v2.3C109.8,4.5,111.1,4.5,112.7,4.5z"/>
</g>
<path style="fill:#D7D7D7;" d="M115,11.3c0,3.3,0,5.8,0,9.1h-2.3c0,1.6,0,2.9,0,4.5h-2.3v2.3c-1.6,0-2.9,0-4.5,0v2.3H11.3v2.3h96.8
	v-2.3c1.6,0,2.9,0,4.5,0v-2.3h2.3c0-1.6,0-2.9,0-4.5h2.3c0-1.1,0-8.8,0-11.3H115z"/>
</svg>
